<svg width="320" height="270" viewBox="0 0 320 270" fill="none" xmlns="http://www.w3.org/2000/svg">
<path d="M300.543 85.5882H287.487V29.6653C287.487 27.9455 286.092 26.5508 284.372 26.5508H274.344C272.625 26.5508 271.23 27.9455 271.23 29.6653V85.5882H50.0535V29.2374C50.0535 27.5177 48.6588 26.123 46.939 26.123H36.9112C35.1914 26.123 33.7968 27.5177 33.7968 29.2374V85.5882H19.4567C8.71016 85.5882 0 94.2984 0 105.045V212.87C0 223.616 8.71016 232.326 19.4567 232.326H33.7968V244.493C33.7968 258.568 45.2021 269.973 59.277 269.973H262.434C276.509 269.973 287.914 258.568 287.914 244.493V232.326H300.543C311.29 232.326 320 223.616 320 212.87V105.045C320 94.2984 311.29 85.5882 300.543 85.5882ZM271.23 241.079C271.23 248.292 265.378 254.144 258.165 254.144H63.5465C56.3337 254.144 50.4813 248.292 50.4813 241.079V161.738H271.23V241.079ZM302.46 113.824C302.46 118.316 298.824 121.952 294.332 121.952H275.508C271.016 121.952 267.38 118.316 267.38 113.824V112.968C267.38 108.476 271.016 104.84 275.508 104.84H294.332C298.824 104.84 302.46 108.476 302.46 112.968V113.824Z" fill="#003F70"/>
<path d="M72.7873 0.0267487H96.6248C99.4911 0.0267487 101.818 2.35402 101.818 5.22033V75.3209H67.5938V5.22033C67.5938 2.35402 69.921 0.0267487 72.7873 0.0267487Z" fill="#FF7956"/>
<path d="M123.268 0.0267487H147.106C149.972 0.0267487 152.299 2.35402 152.299 5.22033V75.3209H118.075V5.22033C118.075 2.35402 120.402 0.0267487 123.268 0.0267487Z" fill="#FFD541"/>
<path d="M173.749 0.0267487H197.587C200.453 0.0267487 202.781 2.35402 202.781 5.22033V75.3209H168.556V5.22033C168.556 2.35402 170.883 0.0267487 173.749 0.0267487Z" fill="#00C4AE"/>
<path d="M224.23 0.0267487H248.068C250.934 0.0267487 253.261 2.35402 253.261 5.22033V75.3209H219.037V5.22033C219.037 2.35402 221.364 0.0267487 224.23 0.0267487Z" fill="#FF4553"/>
<path d="M101.818 172.005V238.683C101.818 241.55 99.4911 243.877 96.6248 243.877H72.7873C69.921 243.877 67.5938 241.55 67.5938 238.683V172.005H101.818Z" fill="#FF7956"/>
<path d="M152.299 172.005V238.683C152.299 241.55 149.972 243.877 147.106 243.877H123.268C120.402 243.877 118.075 241.55 118.075 238.683V172.005H152.299Z" fill="#FFD541"/>
<path d="M202.781 172.005V238.683C202.781 241.55 200.453 243.877 197.587 243.877H173.749C170.883 243.877 168.556 241.55 168.556 238.683V172.005H202.781Z" fill="#00C4AE"/>
<path d="M253.261 172.005V238.683C253.261 241.55 250.934 243.877 248.068 243.877H224.23C221.364 243.877 219.037 241.55 219.037 238.683V172.005H253.261Z" fill="#FF4553"/>
</svg>
