<svg width="400" height="400" viewBox="0 0 400 400" fill="none" xmlns="http://www.w3.org/2000/svg">
<rect width="400" height="400" fill="white"/>
<path d="M340.543 150.588H327.487V94.6653C327.487 92.9455 326.092 91.5508 324.372 91.5508H314.344C312.625 91.5508 311.23 92.9455 311.23 94.6653V150.588H90.0535V94.2374C90.0535 92.5177 88.6588 91.123 86.939 91.123H76.9112C75.1914 91.123 73.7968 92.5177 73.7968 94.2374V150.588H59.4567C48.7102 150.588 40 159.298 40 170.045V277.87C40 288.616 48.7102 297.326 59.4567 297.326H73.7968V309.493C73.7968 323.568 85.2021 334.973 99.277 334.973H302.434C316.509 334.973 327.914 323.568 327.914 309.493V297.326H340.543C351.29 297.326 360 288.616 360 277.87V170.045C360 159.298 351.29 150.588 340.543 150.588ZM311.23 306.079C311.23 313.292 305.378 319.144 298.165 319.144H103.547C96.3337 319.144 90.4813 313.292 90.4813 306.079V226.738H311.23V306.079ZM342.46 178.824C342.46 183.316 338.824 186.952 334.332 186.952H315.508C311.016 186.952 307.38 183.316 307.38 178.824V177.968C307.38 173.476 311.016 169.84 315.508 169.84H334.332C338.824 169.84 342.46 173.476 342.46 177.968V178.824Z" fill="#003F70"/>
<path d="M112.787 65.0267H136.625C139.491 65.0267 141.818 67.354 141.818 70.2203V140.321H107.594V70.2203C107.594 67.354 109.921 65.0267 112.787 65.0267Z" fill="#FF7956"/>
<path d="M163.268 65.0267H187.106C189.972 65.0267 192.299 67.354 192.299 70.2203V140.321H158.075V70.2203C158.075 67.354 160.402 65.0267 163.268 65.0267Z" fill="#FFD541"/>
<path d="M213.749 65.0267H237.587C240.453 65.0267 242.781 67.354 242.781 70.2203V140.321H208.556V70.2203C208.556 67.354 210.883 65.0267 213.749 65.0267Z" fill="#00C4AE"/>
<path d="M264.23 65.0267H288.068C290.934 65.0267 293.261 67.354 293.261 70.2203V140.321H259.037V70.2203C259.037 67.354 261.364 65.0267 264.23 65.0267Z" fill="#FF4553"/>
<path d="M141.818 237.005V303.683C141.818 306.55 139.491 308.877 136.625 308.877H112.787C109.921 308.877 107.594 306.55 107.594 303.683V237.005H141.818Z" fill="#FF7956"/>
<path d="M192.299 237.005V303.683C192.299 306.55 189.972 308.877 187.106 308.877H163.268C160.402 308.877 158.075 306.55 158.075 303.683V237.005H192.299Z" fill="#FFD541"/>
<path d="M242.781 237.005V303.683C242.781 306.55 240.453 308.877 237.587 308.877H213.749C210.883 308.877 208.556 306.55 208.556 303.683V237.005H242.781Z" fill="#00C4AE"/>
<path d="M293.261 237.005V303.683C293.261 306.55 290.934 308.877 288.068 308.877H264.23C261.364 308.877 259.037 306.55 259.037 303.683V237.005H293.261Z" fill="#FF4553"/>
</svg>
